#!OML:ASF Y:\EmotionMaleHayes\Project 1\Capture day 1\Session 1\Male1.ASF
:FULLY-SPECIFIED
:DEGREES
2222
root -29.0532 16.5602 11.9854 1256.2 -8.15373 -181.976
lowerback 8.91498 -0.303473 -4.3934
upperback 3.13868 -0.991654 0.946948
thorax -1.6523 -0.614234 3.55695
lowerneck -20.5829 -2.66232 -2.24039
upperneck 27.2223 -6.65771 7.38652
head 12.8752 -2.6261 1.98448
rclavicle 8.19987e-016 -3.57812e-015
rhumerus -43.9782 -4.86728 -81.5824
rradius 36.1647
rwrist 2.27476
rhand -4.92799 -29.599
rfingers 7.12502
rthumb 20.8626 -58.4973
lclavicle 8.19987e-016 -3.57812e-015
lhumerus -32.4096 -3.74761 85.6108
lradius 38.3202
lwrist -2.95021
lhand -12.3849 -23.649
lfingers 7.12502
lthumb 13.6861 5.88098
rfemur -10.6818 -11.3466 20.4101
rtibia 14.5905
rfoot -10.539 -5.35749
rtoes 29.8514
lfemur 13.9545 7.19302 -11.6097
ltibia 48.9886
lfoot 4.05127 9.26936
ltoes 2.97386
2223
root -29.0666 16.5678 11.8658 1255.99 -7.85597 -181.656
lowerback 8.90073 -0.283498 -4.02883
upperback 3.1985 -0.936736 1.02313
thorax -1.59295 -0.590903 3.42386
lowerneck -20.7352 -2.74052 -2.26152
upperneck 27.2163 -6.77172 7.4272
head 12.9144 -2.66756 1.98231
rclavicle -1.98536e-014 4.37326e-015
rhumerus -43.4381 -4.03617 -82.1344
rradius 37.0606
rwrist 1.25672
rhand -4.96003 -29.5521
rfingers 7.12502
rthumb 20.8318 -58.4537
lclavicle -1.98536e-014 4.37326e-015
lhumerus -32.4564 -3.19031 86.0109
lradius 37.2932
lwrist -3.62523
lhand -11.9401 -23.4322
lfingers 7.12502
lthumb 14.1147 6.06838
rfemur -10.6818 -11.3466 20.4101
rtibia 14.5905
rfoot -10.539 -5.35749
rtoes 29.8514
lfemur 12.8227 7.13191 -11.2289
ltibia 50.6623
lfoot 3.7186 7.99793
ltoes -0.854865
2224
root -29.0725 16.5656 11.7494 1255.33 -7.27377 -179.812
lowerback 9.21094 -0.293769 -2.25562
upperback 3.29371 -0.819611 1.5777
thorax -1.69446 -0.538963 2.99126
lowerneck -20.7655 -2.73568 -2.124
upperneck 27.138 -6.72331 7.23063
head 12.8714 -2.65312 1.89113
rclavicle -2.53202e-014 7.15625e-015
rhumerus -42.9867 -3.25179 -82.522
rradius 38.0789
rwrist 0.656762
rhand -5.06234 -29.5594
rfingers 7.12502
rthumb 20.7335 -58.4718
lclavicle -2.53202e-014 7.15625e-015
lhumerus -32.5817 -2.62613 86.4501
lradius 36.308
lwrist -3.99729
lhand -11.869 -23.0688
lfingers 7.12502
lthumb 14.1833 6.42705
rfemur -10.6818 -11.3466 20.4101
rtibia 14.5905
rfoot -10.539 -5.35749
rtoes 29.8514
lfemur 12.0878 7.24541 -8.78951
ltibia 52.1003
lfoot 3.16116 6.82365
ltoes -2.74088
2225
root -29.0784 16.5713 11.6346 1255.13 -6.88103 -179.676
lowerback 9.33732 -0.241282 -2.18388
upperback 3.27438 -0.747261 1.64499
thorax -1.78898 -0.502653 3.01559
lowerneck -20.6215 -2.75013 -2.01435
upperneck 26.9672 -6.69781 7.06847
head 12.759 -2.65479 1.81495
rclavicle 1.57288e-014 -2.98177e-014
rhumerus -42.7867 -2.69767 -82.8336
rradius 39.3063
rwrist 0.306271
rhand -5.12568 -29.5855
rfingers 7.12502
rthumb 20.6727 -58.5045
lclavicle 1.57288e-014 -2.98177e-014
lhumerus -32.7628 -2.16468 86.8362
lradius 35.3335
lwrist -4.25488
lhand -11.886 -22.8951
lfingers 7.12502
lthumb 14.1669 6.60189
rfemur -10.6818 -11.3466 20.4101
rtibia 14.5905
rfoot -10.539 -5.35749
rtoes 29.8514
lfemur 10.9883 7.31128 -8.52458
ltibia 53.4612
lfoot 2.32772 6.09991
ltoes -3.32133
2226
root -29.086 16.5825 11.5149 1255.03 -6.57021 -179.631
lowerback 9.2835 -0.185185 -2.12119
upperback 3.25201 -0.663625 1.64328
thorax -1.78896 -0.459371 2.9689
lowerneck -20.4748 -2.82552 -2.04789
upperneck 26.8257 -6.78447 7.0874
head 12.6787 -2.70032 1.8131
rclavicle 1.66482e-015 1.03368e-014
rhumerus -42.5959 -1.82248 -83.311
rradius 40.5231
rwrist -0.375025
rhand -5.59856 -29.7592
rfingers 7.12502
rthumb 20.2182 -58.727
lclavicle 1.66482e-015 1.03368e-014
lhumerus -32.8407 -1.71053 87.159
lradius 34.2567
lwrist -4.55208
lhand -11.9189 -22.7618
lfingers 7.12502
lthumb 14.1351 6.73735
rfemur -3.27417 -11.2786 25.2699
rtibia 11.9947
rfoot -11.4172 -0.108295
rtoes 31.973
lfemur 9.85228 7.23333 -8.47542
ltibia 54.6194
lfoot 1.49591 5.59261
ltoes -4.11589
2227
root -29.1162 16.5934 11.4108 1254.88 -5.88479 -178.696
lowerback 9.27812 -0.0992762 -0.776647
upperback 3.22344 -0.434291 1.76536
thorax -1.83971 -0.343876 2.31225
lowerneck -20.4464 -2.87805 -2.06459
upperneck 26.7832 -6.88313 7.17148
head 12.6666 -2.73837 1.83044
rclavicle -3.85145e-015 8.74653e-015
rhumerus -42.1705 -0.734927 -83.8952
rradius 41.4715
rwrist -1.2432
rhand -6.16607 -29.7659
rfingers 7.12502
rthumb 19.6727 -58.7905
lclavicle -3.85145e-015 8.74653e-015
lhumerus -32.8443 -1.20188 87.3268
lradius 33.1742
lwrist -5.00885
lhand -12.0064 -22.4985
lfingers 7.12502
lthumb 14.0508 7.0065
rfemur -2.99423 -12.1707 26.2931
rtibia 12.3433
rfoot -11.5464 0.855543
rtoes 26.8607
lfemur 8.69554 7.37794 -7.46409
ltibia 55.6333
lfoot 0.983402 5.1068
ltoes -4.37839
2228
root -29.1456 16.6429 11.331 1254.91 -3.74062 -171.178
lowerback 8.97025 0.035688 7.47327
upperback 2.96755 0.308873 3.6234
thorax -1.89171 -0.050873 -0.458417
lowerneck -20.4245 -2.88517 -1.95802
upperneck 26.7492 -6.94313 7.2007
head 12.6503 -2.7539 1.81245
rclavicle 2.85753e-015 -4.8901e-014
rhumerus -41.5623 0.24135 -84.3898
rradius 42.1471
rwrist -2.01183
rhand -6.2969 -29.5309
rfingers 7.12502
rthumb 19.5469 -58.5683
lclavicle 2.85753e-015 -4.8901e-014
lhumerus -32.7995 -0.373124 87.33
lradius 32.076
lwrist -5.89503
lhand -12.2337 -22.4077
lfingers 7.12502
lthumb 13.8318 7.11245
rfemur -3.55167 -11.3879 35.7856
rtibia 12.5548
rfoot -11.737 1.79492
rtoes 25.6166
lfemur 7.05023 9.02096 2.40715
ltibia 56.93
lfoot 0.964842 3.63287
ltoes -5.08996
2229
root -29.1486 16.6165 11.1937 1254.6 -4.79476 -178.809
lowerback 9.36897 0.157809 -0.564541
upperback 3.25864 -0.0811311 1.61028
thorax -1.8699 -0.16825 1.99471
lowerneck -20.4117 -2.85931 -1.69744
upperneck 26.7631 -6.96256 7.06557
head 12.6392 -2.7564 1.71274
rclavicle -5.66536e-015 -5.96354e-016
rhumerus -41.1302 0.63373 -84.5506
rradius 43.0962
rwrist -2.13705
rhand -6.41576 -29.3862
rfingers 7.12502
rthumb 19.4326 -58.4352
lclavicle -5.66536e-015 -5.96354e-016
lhumerus -32.7507 0.611794 87.3121
lradius 30.9756
lwrist -6.7299
lhand -12.5344 -22.4658
lfingers 7.12502
lthumb 13.542 7.07389
rfemur -1.2865 -11.9229 25.9397
rtibia 11.6257
rfoot -11.8628 1.9731
rtoes 25.8422
lfemur 6.58516 7.69553 -7.62537
ltibia 57.0727
lfoot -0.0964412 4.63528
ltoes -6.02256
2230
root -29.1641 16.6317 11.085 1254.45 -4.28146 -179.333
lowerback 9.46999 0.300274 -0.997691
upperback 3.27644 0.0662468 1.45812
thorax -1.9136 -0.0947477 2.0658
lowerneck -20.4454 -2.86252 -1.80772
upperneck 26.8888 -6.96406 7.08982
head 12.7017 -2.76639 1.74024
rclavicle 1.39149e-015 9.14409e-015
rhumerus -40.7323 0.829723 -84.539
rradius 44.2282
rwrist -2.02967
rhand -6.73891 -29.4775
rfingers 7.12502
rthumb 19.1219 -58.5574
lclavicle 1.39149e-015 9.14409e-015
lhumerus -32.7712 1.44456 87.3437
lradius 29.9848
lwrist -7.1406
lhand -12.776 -22.3864
lfingers 7.12502
lthumb 13.3091 7.16856
rfemur -0.388045 -11.9057 25.1087
rtibia 11.2591
rfoot -11.9087 2.71942
rtoes 26.7652
lfemur 5.63818 7.69189 -8.36536
ltibia 57.5207
lfoot -1.23435 4.68085
ltoes -5.82986
2231
root -29.1676 16.6454 10.9718 1254.24 -3.56093 -179.087
lowerback 9.53156 0.476342 -0.821774
upperback 3.27315 0.313622 1.56913
thorax -1.96102 0.026538 2.05467
lowerneck -20.2543 -2.85667 -1.89222
upperneck 26.8484 -6.9245 7.07805
head 12.6457 -2.76791 1.75846
rclavicle 3.50358e-015 1.35174e-014
rhumerus -40.3881 1.72583 -84.6925
rradius 45.1225
rwrist -2.51077
rhand -7.12078 -29.7502
rfingers 7.12502
rthumb 18.7547 -58.8661
lclavicle 3.50358e-015 1.35174e-014
lhumerus -32.8654 2.40569 87.2997
lradius 29.0068
lwrist -7.87257
lhand -13.0407 -22.2333
lfingers 7.12502
lthumb 13.054 7.33816
rfemur 0.44911 -11.6711 25.3782
rtibia 10.9314
rfoot -12.035 3.13433
rtoes 25.225
lfemur 4.7836 7.92297 -7.90271
ltibia 57.8332
lfoot -2.43728 4.59243
ltoes -5.16597
2232
root -29.1694 16.656 10.8593 1254.01 -2.62873 -178.224
lowerback 9.58487 0.634322 0.0237731
upperback 3.26596 0.594065 1.81085
thorax -2.00231 0.161535 1.79743
lowerneck -19.9919 -2.77296 -1.86697
upperneck 26.7539 -6.82132 7.10589
head 12.5483 -2.72951 1.78409
rclavicle 7.67806e-015 1.15295e-014
rhumerus -39.8866 2.59611 -84.9009
rradius 45.7189
rwrist -2.83275
rhand -7.69365 -29.764
rfingers 7.12502
rthumb 18.2036 -58.9322
lclavicle 7.67806e-015 1.15295e-014
lhumerus -32.9935 3.5851 87.0489
lradius 28.0186
lwrist -9.0794
lhand -13.5362 -22.1692
lfingers 7.12502
lthumb 12.5763 7.4323
rfemur 1.23191 -10.3114 26.6166
rtibia 10.6426
rfoot -12.2824 3.23158
rtoes 28.6809
lfemur 4.00031 8.35423 -6.56477
ltibia 57.9973
lfoot -3.6691 4.52847
ltoes -5.02659
2233
root -29.1721 16.6622 10.751 1253.88 -1.768 -177.569
lowerback 9.55865 0.763877 0.711728
upperback 3.26901 0.821487 1.94947
thorax -1.98278 0.270854 1.52849
lowerneck -19.8822 -2.68469 -1.70364
upperneck 26.7728 -6.75758 7.07126
head 12.523 -2.69803 1.75421
rclavicle -4.47266e-016 -1.19271e-014
rhumerus -39.3288 3.33616 -85.1516
rradius 46.2945
rwrist -3.00604
rhand -8.43697 -29.2986
rfingers 7.12502
rthumb 17.4883 -58.5319
lclavicle -4.47266e-016 -1.19271e-014
lhumerus -33.1084 4.62033 86.7123
lradius 27.1
lwrist -9.98505
lhand -14.073 -22.2842
lfingers 7.12502
lthumb 12.0588 7.34831
rfemur 2.09256 -9.60665 27.4704
rtibia 10.0723
rfoot -12.2319 3.77697
rtoes 30.3854
lfemur 3.10829 8.68256 -5.57016
ltibia 58.01
lfoot -4.6883 4.58498
ltoes -6.59449
